{"title":"Benny and Joon (1993) Johnny Depp (DVDrip)","uid":4363507,"size":734312546,"categoryP":"video","categoryS":"movies","magnet":"?xt=urn:btih:228d622fa3fe5342d8dab5afec3e3c7539628485&amp;dn=Benny+and+Joon+%281993%29+Johnny+Depp+%28DVDrip%29&amp;tr=udp%3A%2F%2Ftracker.openbittorrent.com%3A80&amp;tr=udp%3A%2F%2Fopen.demonii.com%3A1337&amp;tr=udp%3A%2F%2Ftracker.coppersurfer.tk%3A6969&amp;tr=udp%3A%2F%2Fexodus.desync.com%3A6969","seeders":16,"leechers":2,"uploader":"Kuthumi","files":-1,"time":1219784162,"description":"aka Benny &amp; Joon (1993) &lt;a href=&quot;\nhttp://www.imdb.com/title/tt0106387/&quot; rel=&quot;nofollow&quot; target=&quot;_NEW&quot;&gt;\nhttp://www.imdb.com/title/tt0106387/&lt;/a&gt;\n\nWith Mary Stuart Masterson (Bad Girls) and Aidan Quinn.\n\nJohnny Depp made a great effort studying Buster Keaton to make this film. He is won as a poker prize to take care of a charmingly disturbed girl and her self-sacrificing brother.\n\nI was surprised to see that this classic is missing here at Piratebay, so I found this rip for you on the net. Quality is not brilliant, but OK.\n\nWidescreen 640x336, good stereo.\n\nBurn tested, runs well in both my standalone DivX players.\n\nFormat                           : DivX\nFormat/Info                      : Hack of AVI\nFile size                        : 700 MiB\nDuration                         : 1h 38mn\nOveral bit rate                  : 995 Kbps\n\nVideo\nFormat                           : MPEG-4 Visual\nFormat settings, BVOP            : Yes\nFormat settings, QPel            : No\nFormat settings, GMC             : No warppoints\nFormat settings, Matrix          : Default\nCodec ID                         : DX50\nCodec ID/Hint                    : DivX 5\nDuration                         : 1h 38mn\nBit rate                         : 857 Kbps\nWidth                            : 640 pixels\nHeight                           : 336 pixels\nDisplay aspect ratio             : 1.905\nFrame rate                       : 23.976 fps\nResolution                       : 8 bits\nColorimetry                      : 4:2:0\nScan type                        : Progressive\nBits/(Pixel*Frame)               : 0.166\nStream size                      : 604 MiB\nTitle                            : Main\nWriting library                  : DivX 6.4.0 (UTC 2006-10-03)\n\nAudio\nFormat                           : MPEG Audio\nFormat version                   : Version 1\nFormat profile                   : Layer 3\nCodec ID                         : 55\nCodec ID/Hint                    : MP3\nDuration                         : 1h 38mn\nBit rate mode                    : Constant\nBit rate                         : 128 Kbps\nChannel(s)                       : 2 channels\nSampling rate                    : 48.0 KHz\nResolution                       : 16 bits\nStream size                      : 90.1 MiB\nTitle                            : Audio - en;02\nWriting library                  : LAME3.97 (beta)\n","torrent":{"xt":"urn:btih:228d622fa3fe5342d8dab5afec3e3c7539628485","amp;dn":"Benny+and+Joon+%281993%29+Johnny+Depp+%28DVDrip%29","amp;tr":["udp%3A%2F%2Ftracker.openbittorrent.com%3A80","udp%3A%2F%2Fopen.demonii.com%3A1337","udp%3A%2F%2Ftracker.coppersurfer.tk%3A6969","udp%3A%2F%2Fexodus.desync.com%3A6969"],"infoHash":"228d622fa3fe5342d8dab5afec3e3c7539628485","infoHashBuffer":{"type":"Buffer","data":[34,141,98,47,163,254,83,66,216,218,181,175,236,62,60,117,57,98,132,133]},"announce":[],"urlList":[]}}